<svg height="512pt" viewBox="0 0 512.07329 512" width="512pt" xmlns="http://www.w3.org/2000/svg"><path d="m502.5625 278.332031c-3.664062 18.019531-17.558594 32.214844-35.496094 36.265625-9.128906 2.050782-18.652344 1.367188-27.394531-1.960937-1.515625-.597657-3-1.28125-4.4375-2.050781v154.625c.003906 7.445312-4.609375 14.113281-11.578125 16.734374-6.96875 2.621094-14.835938.644532-19.738281-4.957031-3.433594-3.839843-8.332031-6.039062-13.484375-6.058593-5.152344 0-10.058594 2.207031-13.480469 6.058593l-3.074219 3.496094-14.761718 16.898437c-3.394532 3.902344-8.308594 6.140626-13.480469 6.140626s-10.089844-2.238282-13.484375-6.140626l-3.582032-4.097656-14.253906-16.296875c-3.414062-3.867187-8.324218-6.082031-13.480468-6.082031-5.160157 0-10.070313 2.214844-13.484376 6.082031l-3.582031 4.09375-14.25 16.300781c-3.394531 3.902344-8.3125 6.140626-13.484375 6.140626s-10.089844-2.238282-13.484375-6.140626l-3.582031-4.097656-14.25-16.296875c-3.414062-3.867187-8.324219-6.082031-13.484375-6.082031-5.15625 0-10.066406 2.214844-13.480469 6.082031l-3.585937 4.09375-14.25 16.300781c-3.394531 3.902344-8.3125 6.140626-13.484375 6.140626-5.167969 0-10.085938-2.238282-13.480469-6.140626l-3.585937-4.097656-14.25-16.296875c-3.414063-3.867187-8.324219-6.082031-13.480469-6.082031-5.160157 0-10.070313 2.214844-13.484375 6.082031-3.320313 3.851563-8.140625 6.09375-13.226563 6.140625-6.839843.035156-13.113281-3.796875-16.214843-9.898437-1.257813-2.484375-1.902344-5.234375-1.875-8.019531v-154.625c-9.804688 5.054687-21.078126 6.476562-31.828126 4.011718-.78125-.160156-1.546874-.359375-2.304687-.597656-1.507813-.363281-2.988281-.820312-4.4375-1.363281-17.964844-7.105469-29.75-24.476563-29.710937-43.792969.035156-19.316406 11.890624-36.640625 29.878906-43.675781 1.378906-.609375 2.804687-1.09375 4.269531-1.449219 4.160156-1.203125 8.46875-1.808594 12.800781-1.792969 7.425782-.007812 14.742188 1.777344 21.332032 5.203125v-35.324218c-.609376-93.300782 69.324218-171.996094 162.046874-182.359376 4.777344-.511718 9.558594-.769531 14.421876-.851562 48-.734375 94.28125 17.824219 128.484374 51.507812 34.199219 33.6875 53.453126 79.6875 53.445313 127.691407v39.335937c1.367187-.679687 2.816406-1.363281 4.269531-1.960937 16.019532-6.265625 34.1875-3.261719 47.339844 7.828125s19.183594 28.484375 15.71875 45.335937zm0 0" fill="#607d8b"/><path d="m468.429688 278.332031c-3.203126 15.542969-14.007813 28.4375-28.757813 34.304688-1.449219.542969-2.929687 1-4.4375 1.363281-.757813.238281-1.523437.4375-2.304687.597656-10.75 2.464844-22.023438 1.042969-31.828126-4.011718v154.625c.027344 2.785156-.617187 5.535156-1.875 8.019531-2.683593-1.515625-5.710937-2.308594-8.792968-2.300781-5.152344 0-10.058594 2.207031-13.480469 6.058593l-3.074219 3.496094c-1.539062-.941406-2.921875-2.125-4.09375-3.496094-3.421875-3.855469-8.328125-6.058593-13.484375-6.058593-5.152343 0-10.058593 2.203124-13.480469 6.058593l-14.25 16.296875-14.253906-16.296875c-3.414062-3.867187-8.324218-6.082031-13.480468-6.082031-5.160157 0-10.070313 2.214844-13.484376 6.082031l-3.582031 4.09375-3.585937-4.09375c-3.414063-3.867187-8.324219-6.082031-13.480469-6.082031-5.160156 0-10.070313 2.214844-13.484375 6.082031l-14.25 16.296875-14.25-16.296875c-3.414062-3.867187-8.324219-6.082031-13.484375-6.082031-5.15625 0-10.066406 2.214844-13.480469 6.082031l-3.585937 4.09375-3.582031-4.09375c-3.414063-3.867187-8.324219-6.082031-13.484376-6.082031-5.15625 0-10.066406 2.214844-13.480468 6.082031l-14.253906 16.296875-14.25-16.296875c-3.414063-3.867187-8.324219-6.082031-13.480469-6.082031-5.160157 0-10.070313 2.214844-13.484375 6.082031-1.171875 1.371094-2.554688 2.554688-4.09375 3.496094l-3.074219-3.496094c-5.601563-6.363281-14.894531-7.929687-22.273437-3.757812-1.257813-2.484375-1.902344-5.234375-1.875-8.019531v-154.625c-9.804688 5.054687-21.078126 6.476562-31.828126 4.011718-.78125-.160156-1.546874-.359375-2.304687-.597656v-3.414062c-1.4375.769531-2.921875 1.453124-4.4375 2.050781-17.964844-7.105469-29.75-24.476563-29.710937-43.792969.035156-19.316406 11.890624-36.640625 29.878906-43.675781 1.453125.597656 2.902344 1.28125 4.269531 1.960937v-3.410156c4.160156-1.203125 8.46875-1.808594 12.800781-1.792969 7.425782-.007812 14.742188 1.777344 21.332032 5.203125v-35.324218c-.609376-93.300782 69.324218-171.996094 162.046874-182.359376 91.984376 8.699219 162.25 85.953126 162.21875 178.347657v39.335937c6.589844-3.425781 13.90625-5.210937 21.332032-5.203125 4.332031-.015625 8.640625.589844 12.800781 1.792969 1.464844.355469 2.890625.839844 4.269531 1.449219 21.335938 8.273437 33.566406 30.753906 28.925782 53.164062zm0 0" fill="#cfd8dc"/><path d="m238.96875 170.726562v93.867188c0 9.425781-7.640625 17.066406-17.066406 17.066406-9.425782 0-17.066406-7.640625-17.066406-17.066406s-7.640626-17.066406-17.066407-17.066406-17.066406 7.640625-17.066406 17.066406v51.199219c0 9.425781-7.640625 17.066406-17.066406 17.066406s-17.066407-7.640625-17.066407-17.066406v-136.535157h.765626zm0 0" fill="#e91e63"/><path d="m273.101562 170.726562v93.867188c0 9.425781 7.640626 17.066406 17.066407 17.066406s17.066406-7.640625 17.066406-17.066406 7.640625-17.066406 17.066406-17.066406 17.066407 7.640625 17.066407 17.066406v25.597656c0 9.425782 7.640624 17.066406 17.066406 17.066406 9.425781 0 17.070312-7.640624 17.070312-17.066406v-110.933594h-.769531zm0 0" fill="#e91e63"/><path d="m238.96875 170.726562c0 28.277344-22.921875 51.199219-51.199219 51.199219-28.277343 0-51.199219-22.921875-51.199219-51.199219 0-28.277343 22.921876-51.199218 51.199219-51.199218 28.277344 0 51.199219 22.921875 51.199219 51.199218zm0 0" fill="#37474f"/><path d="m375.503906 170.726562c0 28.277344-22.925781 51.199219-51.203125 51.199219-28.277343 0-51.199219-22.921875-51.199219-51.199219 0-28.277343 22.921876-51.199218 51.199219-51.199218 28.277344 0 51.203125 22.921875 51.203125 51.199218zm0 0" fill="#37474f"/><path d="m43.195312 322.96875c8.269532 1.867188 16.859376 1.820312 25.105469-.136719v142.371094c.042969 10.984375 6.867188 20.800781 17.148438 24.664063 10.28125 3.863281 21.882812.972656 29.144531-7.265626 1.8125-1.96875 4.367188-3.089843 7.042969-3.089843s5.226562 1.121093 7.039062 3.089843l17.917969 20.429688c5.023438 5.722656 12.269531 9.003906 19.882812 9.003906 7.617188 0 14.863282-3.28125 19.882813-9.003906l17.921875-20.4375c1.8125-1.96875 4.363281-3.089844 7.039062-3.089844 2.675782 0 5.230469 1.121094 7.039063 3.089844l17.921875 20.429688c5.023438 5.722656 12.265625 9.003906 19.882812 9.003906 7.613282 0 14.859376-3.28125 19.882813-9.003906l17.875-20.4375c1.8125-1.96875 4.367187-3.089844 7.042969-3.089844 2.675781 0 5.226562 1.121094 7.039062 3.089844l17.875 20.425781c5.023438 5.726562 12.269532 9.007812 19.882813 9.007812 7.617187 0 14.863281-3.28125 19.882812-9.007812l17.878907-20.4375c1.8125-1.96875 4.363281-3.085938 7.039062-3.085938s5.230469 1.117188 7.039062 3.085938c7.28125 8.136719 18.8125 10.964843 29.03125 7.121093 10.21875-3.847656 17.027344-13.574218 17.136719-24.492187v-142.371094c22.3125 5.308594 45.59375-3.664062 58.570313-22.574219 12.976562-18.910156 12.976562-43.859374 0-62.773437-12.976563-18.910156-36.257813-27.882813-58.570313-22.574219v-27.117187c.003907-50.292969-20.167969-98.488281-56.003906-133.777344-35.832031-35.292969-84.328125-54.730469-134.613281-53.9570312-101.921875 1.5546872-184.851563 87.5703122-184.851563 191.7695312v23.082031c-20.59375-4.925781-42.191406 2.328125-55.636719 18.6875-12.242187 14.855469-15.90625 34.996094-9.683593 53.210938 6.222656 18.214844 21.445312 31.902344 40.214843 36.160156zm-17.355468-78.507812c11.566406-13.703126 31.003906-17.726563 47.0625-9.734376 2.648437 1.375 5.824218 1.265626 8.371094-.285156 2.550781-1.554687 4.101562-4.324218 4.09375-7.3125v-35.300781c0-94.925781 75.386718-173.285156 168.039062-174.703125 45.71875-.703125 89.804688 16.964844 122.382812 49.046875 32.578126 32.085937 50.917969 75.898437 50.914063 121.621094v39.335937c0 2.980469 1.554687 5.746094 4.105469 7.292969 2.546875 1.546875 5.714844 1.652344 8.359375.277344 16.058593-7.996094 35.503906-3.964844 47.0625 9.753906 11.574219 14.03125 11.703125 34.257813.308593 48.433594-11.394531 14.175781-31.183593 18.394531-47.371093 10.105469-2.648438-1.375-5.824219-1.269532-8.371094.285156-2.550781 1.550781-4.101563 4.324218-4.09375 7.308594v154.617187c-.042969 3.871094-2.460937 7.320313-6.085937 8.683594-3.628907 1.359375-7.71875.355469-10.300782-2.53125-5.019531-5.722657-12.265625-9.003907-19.882812-9.003907-7.613282 0-14.859375 3.28125-19.882813 9.003907l-17.917969 20.480469c-1.808593 1.96875-4.359374 3.09375-7.035156 3.09375-2.675781 0-5.226562-1.125-7.035156-3.09375l-17.878906-20.480469c-5.023438-5.722657-12.269532-9.003907-19.882813-9.003907s-14.859375 3.28125-19.882812 9.003907l-17.917969 20.480469c-1.808594 1.96875-4.363281 3.09375-7.039062 3.09375-2.671876 0-5.226563-1.125-7.035157-3.09375l-17.917969-20.480469c-5.023437-5.722657-12.269531-9.003907-19.882812-9.003907s-14.859375 3.28125-19.882812 9.003907l-17.921876 20.480469c-1.808593 1.96875-4.359374 3.09375-7.035156 3.09375-2.675781 0-5.226562-1.125-7.035156-3.09375l-17.917969-20.480469c-5.023437-5.722657-12.269531-9.003907-19.882812-9.003907-7.617188 0-14.863281 3.28125-19.882813 9.003907-2.605468 2.75-6.609375 3.664062-10.148437 2.320312-3.542969-1.347656-5.925781-4.6875-6.050781-8.472656v-154.617187c.007812-2.984376-1.542969-5.757813-4.09375-7.308594-2.546876-1.554688-5.722657-1.660156-8.371094-.285156-16.179688 8.15625-35.863282 3.894531-47.214844-10.230469-11.355469-14.121094-11.289062-34.257813.152344-48.308594zm0 0"/><path d="m153.636719 341.390625c14.136719 0 25.597656-11.460937 25.597656-25.597656v-51.199219c0-4.714844 3.820313-8.535156 8.535156-8.535156 4.710938 0 8.53125 3.820312 8.53125 8.535156 0 14.136719 11.460938 25.597656 25.601563 25.597656 14.136718 0 25.601562-11.460937 25.601562-25.597656v-93.867188c0-32.992187-26.746094-59.734374-59.734375-59.734374-32.992187 0-59.734375 26.742187-59.734375 59.734374.007813 2.207032.136719 4.417969.382813 6.613282-.199219.621094-.328125 1.265625-.382813 1.917968v136.535157c0 14.136719 11.460938 25.597656 25.601563 25.597656zm34.132812-213.332031c23.5625 0 42.664063 19.101562 42.664063 42.667968 0 23.5625-19.101563 42.664063-42.664063 42.664063-23.566406 0-42.667969-19.101563-42.667969-42.664063.027344-23.554687 19.113282-42.640624 42.667969-42.667968zm0 102.398437c16.070313.003907 31.457031-6.488281 42.664063-18.003906v52.140625c0 4.710938-3.820313 8.53125-8.53125 8.53125-4.714844 0-8.535156-3.820312-8.535156-8.53125 0-14.140625-11.460938-25.601562-25.597657-25.601562-14.140625 0-25.601562 11.460937-25.601562 25.601562v51.199219c0 4.710937-3.820313 8.53125-8.53125 8.53125-4.714844 0-8.535157-3.820313-8.535157-8.53125v-103.339844c11.210938 11.515625 26.597657 18.007813 42.667969 18.003906zm0 0"/><path d="m290.167969 290.191406c14.140625 0 25.601562-11.460937 25.601562-25.597656 0-4.714844 3.820313-8.535156 8.53125-8.535156 4.714844 0 8.535157 3.820312 8.535157 8.535156v25.597656c0 14.140625 11.460937 25.601563 25.597656 25.601563 14.140625 0 25.601562-11.460938 25.601562-25.601563v-110.933594c-.050781-.652343-.179687-1.296874-.382812-1.917968.246094-2.195313.375-4.40625.382812-6.613282 0-32.992187-26.742187-59.734374-59.734375-59.734374-32.988281 0-59.730469 26.742187-59.730469 59.734374v93.867188c0 6.789062 2.695313 13.300781 7.496094 18.101562 4.800782 4.800782 11.3125 7.496094 18.101563 7.496094zm34.132812-162.132812c23.566407 0 42.667969 19.101562 42.667969 42.667968 0 23.5625-19.101562 42.664063-42.667969 42.664063-23.5625 0-42.664062-19.101563-42.664062-42.664063.027343-23.554687 19.113281-42.640624 42.664062-42.667968zm0 102.398437c16.070313.003907 31.457031-6.488281 42.667969-18.003906v77.738281c0 4.714844-3.820312 8.535156-8.535156 8.535156-4.710938 0-8.53125-3.820312-8.53125-8.535156v-25.597656c0-14.140625-11.460938-25.601562-25.601563-25.601562-14.136719 0-25.597656 11.460937-25.597656 25.601562 0 4.710938-3.820313 8.53125-8.535156 8.53125-4.710938 0-8.53125-3.820312-8.53125-8.53125v-52.140625c11.207031 11.515625 26.597656 18.007813 42.664062 18.003906zm0 0"/></svg>