<svg height="512pt" viewBox="0 0 512.05033 512" width="512pt" xmlns="http://www.w3.org/2000/svg"><path d="m59.734375 287.960938c-4.105469 1.480468-8.4375 2.234374-12.800781 2.21875-21.207032 0-38.398438-17.191407-38.398438-38.398438s17.191406-38.402344 38.398438-38.402344c4.363281-.011718 8.695312.738282 12.800781 2.21875" fill="#558b30"/><path d="m503.464844 401.113281c-8.855469 17.578125-21.058594 33.261719-35.921875 46.167969-42.582031 37.542969-107.523438 56.234375-181.675781 56.234375-2.132813 0-4.265626 0-6.402344-.171875-80.636719-1.28125-150.695313-29.78125-188.925782-71.679688-8.429687-9.101562-15.476562-19.394531-20.90625-30.550781-.511718-1.023437-.941406-2.046875-1.367187-3.070312-5.585937-12.457031-8.492187-25.945313-8.53125-39.59375v-166.65625c0-98.5625 77.910156-181.675781 176.46875-183.210938 14.292969-.265625 28.566406 1.226563 42.496094 4.4375 81.566406 18.578125 139.433593 91.105469 139.433593 174.761719v139.09375c-.222656 16.597656 3.929688 32.957031 12.03125 47.445312 11.265626 19.371094 35.242188 35.582032 73.300782 26.792969zm0 0" fill="#558b30"/><path d="m460.800781 446.253906c-42.839843 36.949219-107.351562 55.980469-181.335937 57.089844-80.636719-1.28125-150.695313-29.78125-188.925782-71.679688-8.429687-9.101562-15.476562-19.394531-20.90625-30.550781-.511718-1.023437-.941406-2.046875-1.367187-3.070312v-221.78125c.238281-88.097657 71.820313-159.335938 159.914063-159.148438 10.839843-.027343 21.652343 1.089844 32.257812 3.328125 74.21875 14.929688 127.621094 80.113282 127.660156 155.820313v194.472656s0 54.101563 72.703125 75.519531zm0 0" fill="#8bc34a"/><path d="m324.265625 224.628906c14.996094-14.996094 39.3125-14.996094 54.308594 0 14.996093 14.996094 14.996093 39.308594 0 54.304688-14.996094 14.996094-39.3125 14.996094-54.308594 0" fill="#558b30"/><path d="m315.734375 236.695312c2.910156-2.03125 6.128906-3.574218 9.53125-4.574218 7.621094-2.230469 15.722656-2.230469 23.347656 0 3.40625 1 6.628907 2.542968 9.539063 4.574218 2.59375 1.800782 4.78125 4.125 6.425781 6.824219 3.140625 5.089844 3.140625 11.515625 0 16.605469-1.644531 2.699219-3.832031 5.023438-6.425781 6.828125-2.910156 2.03125-6.132813 3.574219-9.539063 4.574219-7.625 2.230468-15.726562 2.230468-23.347656 0-3.410156-1.027344-6.628906-2.601563-9.53125-4.660156" fill="#8bc34a"/><g fill="#37474f"><path d="m132.4375 145.371094c1.359375-.171875 2.726562-.257813 4.097656-.257813 18.847656 0 34.132813 15.28125 34.132813 34.132813 0 18.851562-15.285157 34.132812-34.132813 34.132812-18.851562 0-34.136718-15.28125-34.136718-34.132812 0-1.367188.085937-2.734375.257812-4.09375"/><path d="m243.371094 145.371094c1.359375-.171875 2.726562-.257813 4.09375-.257813 18.851562 0 34.136718 15.28125 34.136718 34.132813 0 18.851562-15.285156 34.132812-34.136718 34.132812-18.847656 0-34.132813-15.28125-34.132813-34.132812 0-1.367188.085938-2.734375.257813-4.09375"/><path d="m273.066406 273.113281v17.066407c.007813 14.882812-4.320312 29.441406-12.457031 41.898437-9.59375-21.535156-34.828125-31.222656-56.363281-21.628906-21.539063 9.589843-31.222656 34.824219-21.632813 56.359375-40.339843-2.695313-71.679687-36.199219-71.679687-76.628906v-17.066407c0-4.710937 3.820312-8.53125 8.53125-8.53125h145.070312c4.710938 0 8.53125 3.820313 8.53125 8.53125zm0 0"/></g><path d="m260.609375 332.078125c-14.148437 21.785156-38.367187 34.921875-64.34375 34.902344h-8.53125c-1.707031 0-3.414063-.085938-5.121094-.171875-9.589843-21.535156.09375-46.769532 21.632813-56.359375 21.535156-9.59375 46.769531.09375 56.363281 21.628906zm0 0" fill="#e91e63"/><path d="m136.535156 157.914062c0 11.78125-9.554687 21.332032-21.335937 21.332032s-21.332031-9.550782-21.332031-21.332032 9.550781-21.332031 21.332031-21.332031 21.335937 9.550781 21.335937 21.332031zm0 0" fill="#f4f4f4"/><path d="m247.464844 157.914062c0 11.78125-9.550782 21.332032-21.332032 21.332032s-21.332031-9.550782-21.332031-21.332032 9.550781-21.332031 21.332031-21.332031 21.332032 9.550781 21.332032 21.332031zm0 0" fill="#f4f4f4"/><path d="m46.933594 298.714844c1.441406 0 2.839844-.238282 4.265625-.367188v60.101563c.074219 16.058593 3.742187 31.894531 10.734375 46.351562 30.738281 64.144531 120.730468 107.246094 223.933594 107.246094 109.097656 0 191.199218-39.039063 225.28125-107.117187 1.480468-2.957032 1.117187-6.503907-.929688-9.101563-2.042969-2.597656-5.40625-3.78125-8.628906-3.035156-40.363282 9.328125-58.171875-12.800781-64-22.757813-7.378906-13.175781-11.144532-28.0625-10.921875-43.160156v-139.09375c.003906-50.292969-20.167969-98.488281-56.003907-133.777344-35.832031-35.292968-84.328124-54.730468-134.613281-53.957031-101.925781 1.554687-184.851562 87.570313-184.851562 191.769531v13.398438c-1.425781-.128906-2.824219-.367188-4.265625-.367188-25.921875 0-46.933594 21.011719-46.933594 46.933594s21.011719 46.933594 46.933594 46.933594zm21.332031-106.898438c0-94.925781 75.382813-173.285156 168.039063-174.703125h2.628906c45.261718 0 88.671875 17.980469 120.679687 49.988281 32.003907 32.003907 49.988281 75.414063 49.988281 120.679688v139.09375c-.222656 18.097656 4.34375 35.933594 13.234376 51.703125 13.265624 22.632813 38.375 35.605469 64.511718 33.339844-35.199218 53.023437-107.433594 83.0625-201.480468 83.0625-95.265626 0-181.019532-40.105469-208.53125-97.527344-5.894532-12.164063-8.992188-25.488281-9.070313-39.003906zm-21.332031 30.097656c1.429687.019532 2.855468.140626 4.265625.359376v59.015624c-1.410157.21875-2.835938.339844-4.265625.359376-16.496094 0-29.867188-13.371094-29.867188-29.867188s13.371094-29.867188 29.867188-29.867188zm0 0"/><path d="m363.996094 272.910156c-11.660156 11.660156-30.566406 11.660156-42.230469 0-3.347656-3.234375-8.667969-3.1875-11.960937.101563-3.292969 3.292969-3.339844 8.617187-.105469 11.964843 13.421875 13.421876 33.609375 17.4375 51.148437 10.171876 17.539063-7.261719 28.972656-24.375 28.972656-43.359376 0-18.984374-11.433593-36.097656-28.972656-43.359374-17.539062-7.265626-37.726562-3.25-51.148437 10.171874-3.234375 3.351563-3.1875 8.671876.105469 11.964844 3.292968 3.289063 8.613281 3.335938 11.960937.101563 2.71875-2.726563 5.941406-4.898438 9.488281-6.398438 11.203125-4.75 24.164063-2.214843 32.753906 6.398438 5.601563 5.601562 8.75 13.203125 8.75 21.125 0 7.925781-3.148437 15.523437-8.75 21.125zm0 0"/><path d="m93.867188 179.246094c0 23.566406 19.101562 42.667968 42.667968 42.667968 23.5625 0 42.664063-19.101562 42.664063-42.667968 0-23.5625-19.101563-42.664063-42.664063-42.664063-.15625 0-.308594 0-.460937 0-11.777344-10.894531-30.058594-10.539062-41.402344.804688s-11.699219 29.625-.804687 41.398437zm68.265624 0c.03125 12.511718-9.007812 23.203125-21.351562 25.253906-12.34375 2.046875-24.351562-5.148438-28.363281-17 .929687.085938 1.828125.28125 2.78125.28125 16.496093 0 29.867187-13.371094 29.867187-29.867188-.046875-.949218-.144531-1.894531-.289062-2.832031 10.316406 3.566407 17.269531 13.246094 17.355468 24.164063zm-46.933593-34.132813c7.070312 0 12.800781 5.730469 12.800781 12.800781 0 7.070313-5.730469 12.800782-12.800781 12.800782-7.070313 0-12.800781-5.730469-12.800781-12.800782 0-7.070312 5.730468-12.800781 12.800781-12.800781zm0 0"/><path d="m204.800781 179.246094c0 23.566406 19.101563 42.667968 42.664063 42.667968 23.566406 0 42.667968-19.101562 42.667968-42.667968 0-23.5625-19.101562-42.664063-42.667968-42.664063-.152344 0-.304688 0-.457032 0-11.777343-10.894531-30.058593-10.539062-41.402343.804688s-11.699219 29.625-.804688 41.398437zm68.265625 0c.03125 12.511718-9.007812 23.203125-21.351562 25.253906-12.34375 2.046875-24.351563-5.148438-28.363282-17 .929688.085938 1.824219.28125 2.78125.28125 16.496094 0 29.867188-13.371094 29.867188-29.867188-.050781-.949218-.144531-1.894531-.289062-2.832031 10.320312 3.566407 17.273437 13.246094 17.355468 24.164063zm-46.933594-34.132813c7.070313 0 12.800782 5.730469 12.800782 12.800781 0 7.070313-5.730469 12.800782-12.800782 12.800782-7.070312 0-12.800781-5.730469-12.800781-12.800782 0-7.070312 5.730469-12.800781 12.800781-12.800781zm0 0"/><path d="m264.535156 256.046875h-145.070312c-9.425782 0-17.066406 7.640625-17.066406 17.066406v17.066407c.074218 44.722656 34.644531 81.8125 79.25 85.027343.320312.0625.640624.109375.964843.136719.121094 0 .238281-.070312.367188-.070312 1.578125.085937 3.148437.242187 4.753906.242187h8.53125c47.109375-.054687 85.28125-38.226563 85.335937-85.335937v-17.066407c0-9.425781-7.640624-17.066406-17.066406-17.066406zm-145.070312 34.132813v-17.066407h145.070312v17.066407c-.011718 8.664062-1.675781 17.246093-4.910156 25.285156-14.972656-16.59375-39-21.519532-59.292969-12.152344-20.296875 9.363281-32.140625 30.839844-29.230469 53-30.3125-7.636719-51.578124-34.871094-51.636718-66.132812zm76.800781 68.269531h-7.355469c-.746094-2.785157-1.140625-5.652344-1.175781-8.535157.019531-15.121093 9.988281-28.425781 24.496094-32.695312 14.503906-4.269531 30.089843 1.515625 38.300781 14.210938-12.863281 17-32.945312 27-54.265625 27.019531zm0 0"/></svg>